PathFileType        4      (X/Y/Z)      Abduction.trc         																																																																												
DataRate	CameraRate	NumFrames	NumMarkers	Units	OrigDataRate	OrigDataStartFrame	OrigNumFrames																																																																					
100	100	10	25	mm	100	996	1991																																																																					
Frame#	Time	AA			AI			Ant_Sh			CV7			GH			LAH			Lat_Sh			LCAJ			LPH			Post_Sh			RAH			RCAJ			RHLE			RHME			RPH			RUA			SJN			SXS			TS			TV8			centelbow			centpxt8			centijc7			centLPHRPH			ScapulaThoracicContactPt		
		X1	Y1	Z1	X2	Y2	Z2	X3	Y3	Z3	X4	Y4	Z4	X5	Y5	Z5	X6	Y6	Z6	X7	Y7	Z7	X8	Y8	Z8	X9	Y9	Z9	X10	Y10	Z10	X11	Y11	Z11	X12	Y12	Z12	X13	Y13	Z13	X14	Y14	Z14	X15	Y15	Z15	X16	Y16	Z16	X17	Y17	Z17	X18	Y18	Z18	X19	Y19	Z19	X20	Y20	Z20	X21	Y21	Z21	X22	Y22	Z22	X23	Y23	Z23	X24	Y24	Z24	X25	Y25	Z25
996	9.95	-469.2637634	1525.549683	2.375375271	-529.8855591	1362.475342	-81.71699524	-359.3998413	1487.805664	-0.960505128	-472.7538452	1598.839355	-188.4808044	-415.0023499	1489.397217	-2.248836279	-259.6491394	1774.088867	-233.4593658	-415.362854	1501.334595	28.05587196	-405.3357544	1569.067505	-373.4787598	-463.427948	1723.341675	-241.1562347	-499.2729187	1491.809326	-4.201420784	-261.8105469	1773.334229	-135.3994751	-411.2009888	1557.226929	-22.99495697	-393.5204773	1210.098389	90.54059601	-426.1265259	1169.210693	-15.73948479	-460.473938	1726.377808	-126.2635956	-487.8634033	1336.177246	41.61743546	-308.3734741	1507.769897	-193.3943939	-256.5175781	1334.041748	-197.7487946	-527.1242065	1507.644409	-112.4375763	-494.037323	1308.184692	-206.3587036	-409.8235016	1189.654541	37.40055561	-375.2774506	1321.11322	-202.0537491	-390.5636597	1553.304626	-190.9375992	-461.950943	1724.859741	-183.7099152	-508.757843	1465.223145	-63.92639875
997	9.96	-469.4416199	1525.156738	1.960365891	-529.9462891	1362.49707	-82.24320221	-360.1958313	1487.934326	-1.483276844	-472.7616272	1598.85144	-188.7091675	-415.1204224	1489.282715	-2.788887978	-259.6523132	1774.092163	-233.6849518	-415.5505981	1501.352783	27.77262878	-405.2529602	1569.067749	-373.6894836	-463.4219055	1723.354492	-241.3242493	-499.219574	1491.34729	-4.788005352	-261.7814331	1773.357666	-135.6250763	-411.4434814	1557.141235	-23.30643654	-393.3925171	1211.154297	92.55379486	-424.9033508	1169.134766	-13.52801323	-460.5254517	1726.355957	-126.482254	-487.6084595	1336.228638	41.33132172	-308.3096008	1507.775391	-193.6659546	-256.5297852	1334.037231	-197.8457489	-527.4146729	1507.852539	-112.7206802	-494.072052	1308.229004	-206.4506989	-409.147934	1190.144531	39.51289082	-375.3009186	1321.133118	-202.1482239	-390.535614	1553.313416	-191.187561	-461.9736786	1724.855225	-183.9032516	-508.9341939	1465.168783	-64.33450552
998	9.97	-469.6112976	1524.896973	1.604870439	-530.0665283	1362.469971	-82.60540009	-360.3417053	1488.147583	-1.706059575	-472.741272	1598.860718	-188.978714	-415.1952515	1489.287476	-3.171313286	-259.624939	1774.098389	-233.9425201	-415.7603149	1501.546265	27.52015877	-405.1324158	1569.031006	-373.9176941	-463.406311	1723.304443	-241.5246429	-499.1868286	1491.032715	-5.414908409	-261.7494202	1773.40332	-135.8669281	-411.7156982	1557.082275	-23.66007423	-393.5183716	1212.30481	94.68095398	-423.8092651	1169.047852	-11.07776356	-460.4892883	1726.355835	-126.7082901	-487.3869629	1336.212891	40.9548378	-308.2677917	1507.82312	-193.7968597	-256.5194702	1334.085571	-197.9111481	-527.6555786	1508.099854	-113.027626	-494.1465454	1308.263916	-206.5583191	-408.6638184	1190.676331	41.80159521	-375.3330078	1321.174744	-202.2347336	-390.5045319	1553.341919	-191.3877869	-461.9477997	1724.830139	-184.1164665	-509.1111348	1465.155599	-64.67605189
999	9.98	-469.8481445	1524.685547	1.159475327	-530.1331787	1362.782593	-83.07484436	-360.5804443	1488.320679	-2.03849864	-472.7069702	1598.874268	-189.3327332	-415.3565674	1489.308716	-3.622938156	-259.6298828	1774.124268	-234.2240143	-416.0222778	1501.822632	27.19647217	-405.0344238	1568.984131	-374.2067871	-463.3601074	1723.330078	-241.900589	-499.1870728	1490.821045	-6.047803402	-261.758728	1773.402222	-136.1817017	-412.046814	1557.087891	-24.09052467	-393.4996338	1214.024658	97.32147217	-422.4945984	1168.97937	-8.167642593	-460.4986877	1726.286743	-126.9870377	-487.0757446	1336.278198	40.68274307	-308.2385254	1507.838867	-193.9846039	-256.5262451	1334.101807	-198.0280457	-527.9187622	1508.228027	-113.334671	-494.1757813	1308.32019	-206.7113495	-407.9971161	1191.502014	44.57691479	-375.3510132	1321.210999	-202.3696976	-390.4727478	1553.356567	-191.6586685	-461.9293976	1724.808411	-184.4438133	-509.3000285	1465.232056	-65.08334668
1000	9.99	-470.1754761	1524.625854	0.609353542	-530.1728516	1362.908691	-83.30831909	-360.7692871	1488.654785	-2.379267216	-472.7395325	1598.914429	-189.7575989	-415.5863953	1489.44751	-4.094307899	-259.6025391	1774.153564	-234.51828	-416.3716125	1502.136597	26.86867142	-404.963623	1568.943237	-374.460022	-463.4029236	1723.335938	-242.2128601	-499.2878723	1490.658081	-6.713047504	-261.7502441	1773.402222	-136.4437561	-412.4056091	1557.213623	-24.49019623	-393.4576721	1215.66748	100.3019257	-420.8772278	1169.124878	-4.916619778	-460.5357056	1726.312378	-127.2155762	-486.7287292	1336.407715	40.50390244	-308.2434082	1507.865723	-194.1919708	-256.5621033	1334.12207	-198.1426697	-528.2290039	1508.378174	-113.7968826	-494.2565613	1308.396729	-206.8750305	-407.16745	1192.396179	47.69265294	-375.4093323	1321.259399	-202.5088501	-390.4914703	1553.390076	-191.9747849	-461.9693146	1724.824158	-184.7142181	-509.5257772	1465.30424	-65.49861606
1001	10	-470.5719604	1524.564087	0.080329649	-530.1756592	1363.004517	-83.55943298	-360.471344	1489.12085	-2.427130222	-472.7251282	1598.942505	-190.2897797	-415.9004517	1489.654053	-4.396055698	-259.59198	1774.162476	-234.7741547	-416.8734436	1502.51123	26.47711945	-404.9577637	1568.82666	-374.7239685	-463.3310852	1723.327026	-242.6712799	-499.4667053	1490.457886	-7.364458561	-261.8314514	1773.419189	-136.7649536	-412.8652649	1557.27832	-25.03466225	-393.7102051	1217.806641	103.7201691	-419.4064636	1169.266113	-1.319980502	-460.5921326	1726.331299	-127.573288	-486.1638489	1336.704346	40.36180115	-308.2536621	1507.899292	-194.4317017	-256.5675049	1334.142578	-198.284729	-528.5632324	1508.46875	-114.2638702	-494.3045959	1308.473511	-207.0414581	-406.5583344	1193.536377	51.20009428	-375.4360504	1321.308044	-202.6630936	-390.4893951	1553.420898	-192.3607407	-461.9616089	1724.829163	-185.1222839	-509.770284	1465.345785	-65.91432452
1002	10.01	-470.9901428	1524.57605	-0.579436481	-531.1657715	1363.393433	-83.50842285	-360.8020325	1489.513672	-2.690780163	-472.7454224	1598.964966	-190.8218231	-416.3617249	1489.832031	-4.864543438	-259.5422363	1774.199829	-234.9973907	-417.4970398	1503.122681	26.09945679	-404.9358521	1568.722046	-375.0238037	-463.3052063	1723.363892	-243.1781464	-499.6231995	1490.309204	-8.122133255	-261.874115	1773.416626	-137.0070496	-413.4678955	1557.243164	-25.74799728	-394.0377197	1219.929443	107.4769821	-417.2526245	1169.739014	2.757002354	-460.6032104	1726.330444	-128.1086578	-485.7124329	1337.005859	40.43400955	-308.2482605	1507.936035	-194.658844	-256.603302	1334.162842	-198.3993378	-528.9699707	1508.523315	-114.8791428	-494.4434509	1308.539063	-207.1846008	-405.6451721	1194.834229	55.11699224	-375.5233765	1321.350952	-202.7919693	-390.4968414	1553.4505	-192.7403336	-461.9542084	1724.847168	-185.6434021	-510.375295	1465.497599	-66.32233403
1003	10.02	-471.4031372	1524.656738	-1.062216163	-531.1149292	1363.543823	-83.71975708	-361.2252502	1489.989258	-2.994920254	-472.7687378	1598.927124	-191.3317108	-416.7876587	1490.072388	-5.2961936	-259.466095	1774.177246	-235.2747955	-418.053009	1503.784424	25.75024986	-404.8941956	1568.677368	-375.3566895	-463.2024231	1723.377197	-243.6991119	-499.6904907	1490.196655	-8.729849815	-261.9532776	1773.411133	-137.353363	-413.925293	1557.463989	-26.39212799	-394.4848938	1222.48938	111.712616	-415.2105713	1170.294189	7.311835289	-460.6572876	1726.345093	-128.6743622	-485.3514099	1337.423096	40.70409393	-308.3085938	1507.949707	-194.9669647	-256.6533813	1334.202148	-198.5810852	-529.2796021	1508.575684	-115.4239426	-494.5012817	1308.576782	-207.4003296	-404.8477325	1196.391785	59.51222563	-375.5773315	1321.389465	-202.9907074	-390.5386658	1553.438416	-193.1493378	-461.9298553	1724.861145	-186.1867371	-510.5992228	1465.592082	-66.73530527
1004	10.03	-471.8909607	1524.839844	-1.614630461	-530.9908447	1363.66394	-83.80917358	-361.6447449	1490.560669	-3.339754581	-473.0587463	1598.736572	-191.7360992	-417.1708984	1490.410034	-5.750218868	-259.4012756	1774.166992	-235.5086365	-418.5619812	1504.563354	25.40943718	-404.8001404	1568.595459	-375.7575989	-463.1853333	1723.368286	-244.1230011	-499.816803	1490.185791	-9.337995529	-262.0324402	1773.405518	-137.699646	-414.4307556	1557.679565	-27.00040054	-395.0977173	1225.433838	116.222374	-412.8414917	1171.132935	12.21001339	-460.6053772	1726.291748	-129.2416534	-485.068634	1337.921143	41.04515839	-308.3102417	1508.022583	-195.2781525	-256.6805725	1334.217896	-198.7452698	-529.6707764	1508.63855	-115.9974976	-494.5191956	1308.605469	-207.6254883	-403.9696045	1198.283386	64.21619368	-375.599884	1321.411682	-203.185379	-390.684494	1553.379578	-193.5071259	-461.8953552	1724.830017	-186.6823273	-510.8508606	1465.714111	-67.14043387
1005	10.04	-472.4638062	1525.258057	-2.257531404	-530.7071533	1363.777588	-83.96215057	-362.0703125	1491.105347	-3.771693707	-473.1363525	1598.727905	-192.2237396	-417.5050964	1490.683228	-6.301962376	-259.318512	1774.114258	-235.8380127	-419.0449829	1505.555054	24.95396423	-404.7131653	1568.528198	-376.2245178	-463.1327209	1723.371094	-244.673996	-500.0196533	1490.054932	-10.06826496	-262.1144409	1773.377563	-138.0296478	-414.8941956	1557.831177	-27.65960693	-395.9013062	1228.628906	121.0596237	-410.8699036	1172.063599	17.53238106	-460.676239	1726.411499	-129.8777924	-484.8329468	1338.663696	41.56929398	-308.3656311	1508.073486	-195.5696564	-256.7027283	1334.261108	-198.9548798	-530.0527344	1508.692139	-116.5459824	-494.5619812	1308.605225	-207.8525696	-403.3856049	1200.346252	69.29600239	-375.6323547	1321.433167	-203.4037247	-390.7509918	1553.400696	-193.896698	-461.90448	1724.891296	-187.2758942	-511.0745646	1465.909261	-67.58855478
